<?xml version="1.0" encoding="utf-8"?>
<!-- Generator: Adobe Illustrator 26.0.3, SVG Export Plug-In . SVG Version: 6.00 Build 0)  -->
<svg version="1.1" id="レイヤー_1" xmlns="http://www.w3.org/2000/svg" xmlns:xlink="http://www.w3.org/1999/xlink" x="0px"
	 y="0px" viewBox="0 0 15 15" style="enable-background:new 0 0 15 15;" xml:space="preserve">
<style type="text/css">
	.st0{fill:#F6AD3C;}
</style>
<path class="st0" d="M3.7,4.9C3.7,4,4,3.1,4.6,2.4c-0.1,0-0.3,0-0.5,0c-1.4,0-2.5,1.1-2.5,2.5s1.1,2.5,2.5,2.5c0.2,0,0.3,0,0.5,0
	C4,6.7,3.7,5.9,3.7,4.9z M10.7,2.4c-0.1,0-0.2,0-0.3,0C11,3.1,11.4,4,11.4,4.9c0,1-0.4,1.8-0.9,2.5c0.1,0,0.2,0,0.3,0
	c1.4,0,2.5-1.1,2.5-2.5S12.1,2.4,10.7,2.4z M2.5,10.2c0.1-0.6,0.6-1.4,1.1-2C3,8.1,2.4,7.9,1.9,7.6c-0.1,0-0.4,0-0.4,0
	C1,8.2,0.3,9.2,0.2,10C-0.1,11.9,1,12.6,3,12.6C2.5,12,2.3,11.3,2.5,10.2z M12.6,10.2c-0.1-0.6-0.6-1.4-1.1-2
	c0.6-0.1,1.1-0.2,1.6-0.5c0.1,0,0.4,0,0.4,0c0.5,0.5,1.2,1.6,1.3,2.3c0.3,1.9-0.8,2.6-2.8,2.6C12.6,12,12.8,11.3,12.6,10.2z
	 M4.7,4.8C4.7,3.3,6,2,7.5,2c1.6,0,2.9,1.3,2.9,2.9c0,1.6-1.3,2.9-2.9,2.9C6,7.7,4.7,6.4,4.7,4.8z M11.5,10.7c0.3,2-1.8,2.8-4,2.8
	c-2.1,0-4.4-0.9-4-2.9c0.1-0.8,0.9-2,1.4-2.5c0.1-0.1,0.4-0.1,0.5,0C6,8.5,6.8,8.7,7.6,8.7c0.8,0,1.5-0.2,2.2-0.6
	c0.1-0.1,0.4,0,0.5,0C10.7,8.7,11.4,9.9,11.5,10.7z"/>
</svg>
