<?xml version="1.0" encoding="utf-8"?>
<!-- Generator: Adobe Illustrator 26.0.3, SVG Export Plug-In . SVG Version: 6.00 Build 0)  -->
<svg version="1.1" id="レイヤー_1" xmlns="http://www.w3.org/2000/svg" xmlns:xlink="http://www.w3.org/1999/xlink" x="0px"
	 y="0px" viewBox="0 0 17 15" style="enable-background:new 0 0 17 15;" xml:space="preserve">
<style type="text/css">
	.st0{fill:#83B5E2;}
</style>
<path class="st0" d="M15.4,6.6h-0.9l-0.8-2.7c-0.1-0.4-0.5-0.7-1-0.7H6.5c-0.5,0-0.9,0.3-1.1,0.7L3.9,6.6H2.5c-1.1,0-1.8,0.6-2,1.2
	C0.4,8.4,0.4,9.4,0.4,9.4c-0.1,0.8,0.6,1.4,1.3,1.4h0.8c0.2,0.9,1,1.6,2,1.6s1.8-0.7,2-1.6h4.7c0.2,0.9,1,1.6,2,1.6s1.8-0.7,2-1.6
	h0.3c0.7,0,1.3-0.6,1.3-1.3V7.9C16.7,7.1,16.1,6.6,15.4,6.6z M1.4,8.5C1.1,8.5,1,8.3,1.1,8c0.1-0.3,0.2-0.6,0.6-0.6
	C2.1,7.3,1.9,8.5,1.4,8.5z M4.4,11.4c-0.6,0-1-0.4-1-1c0-0.6,0.4-1,1-1c0.6,0,1,0.4,1,1C5.4,10.9,5,11.4,4.4,11.4z M8.8,6.6H5
	c0,0,0.8-1.6,1-1.9c0.2-0.3,0.3-0.5,0.7-0.5c0.4,0,2,0,2,0V6.6z M9.8,6.6V4.2c0,0,1.9,0,2.3,0s0.6,0.2,0.7,0.5
	c0.1,0.3,0.5,1.9,0.5,1.9H9.8z M13.1,11.4c-0.6,0-1-0.4-1-1c0-0.6,0.4-1,1-1c0.6,0,1,0.4,1,1C14.1,10.9,13.6,11.4,13.1,11.4z"/>
</svg>
