<?xml version="1.0" encoding="utf-8"?>
<!-- Generator: Adobe Illustrator 26.0.3, SVG Export Plug-In . SVG Version: 6.00 Build 0)  -->
<svg version="1.1" id="レイヤー_1" xmlns="http://www.w3.org/2000/svg" xmlns:xlink="http://www.w3.org/1999/xlink" x="0px"
	 y="0px" viewBox="0 0 15 15" style="enable-background:new 0 0 15 15;" xml:space="preserve">
<style type="text/css">
	.st0{fill:#F7B13C;}
</style>
<path class="st0" d="M11.6,2.7h-0.4v1.5c0,0.3-0.2,0.5-0.5,0.5H9.2C9,4.7,8.8,4.5,8.8,4.2V2.7H6.5v1.4c0,0.3-0.3,0.6-0.6,0.6H4.6
	C4.3,4.7,4,4.5,4,4.1V2.7H3.6c-0.8,0-1.4,0.6-1.4,1.4v7.4c0,0.8,0.6,1.4,1.4,1.4h8c0.8,0,1.4-0.6,1.4-1.4V4.2
	C13,3.4,12.4,2.7,11.6,2.7z M12,11.3c0,0.3-0.3,0.6-0.6,0.6H3.9c-0.3,0-0.6-0.3-0.6-0.6V5.7H12V11.3z M5.2,1.7C5.8,1.7,6,2.1,6,2.3
	C6,2.5,6,3.8,6,4s0,0.3-0.2,0.3c-0.2,0-0.9,0-1.1,0C4.6,4.3,4.5,4.1,4.5,4c0-0.2,0-1.4,0-1.6C4.5,2.1,4.7,1.7,5.2,1.7z M10,1.7
	c0.5,0,0.8,0.4,0.8,0.6c0,0.2,0,1.5,0,1.7s0,0.3-0.2,0.3c-0.2,0-0.9,0-1.1,0C9.3,4.3,9.2,4.1,9.2,4c0-0.2,0-1.4,0-1.6
	C9.2,2.1,9.4,1.7,10,1.7z M6,8.3H4.4V6.7H6V8.3z M8.4,8.3H6.8V6.7h1.6V8.3z M10.9,8.3H9.3V6.7h1.6V8.3z M6,10.9H4.4V9.3H6V10.9z
	 M8.4,10.9H6.8V9.3h1.6V10.9z M10.9,10.9H9.3V9.3h1.6V10.9z"/>
</svg>
