<?xml version="1.0" encoding="utf-8"?>
<!-- Generator: Adobe Illustrator 26.0.3, SVG Export Plug-In . SVG Version: 6.00 Build 0)  -->
<svg version="1.1" id="レイヤー_1" xmlns="http://www.w3.org/2000/svg" xmlns:xlink="http://www.w3.org/1999/xlink" x="0px"
	 y="0px" viewBox="0 0 15 15" style="enable-background:new 0 0 15 15;" xml:space="preserve">
<style type="text/css">
	.st0{fill:#B5B5B6;}
</style>
<path class="st0" d="M9.5,8.2c0,1.1-0.9,1.9-1.9,1.9c-1.1,0-1.9-0.9-1.9-1.9c0-1.1,0.9-1.9,1.9-1.9C8.6,6.3,9.5,7.2,9.5,8.2z
	 M14.1,4.5v7.1c0,0.7-0.6,1.2-1.2,1.2H2.4c-0.9,0-1.3-0.6-1.3-1.2V4.5C1,4,1.5,3.4,2.2,3.4h2.6V2.9c0-0.5,0.4-0.8,0.8-0.8h3.9
	c0.5,0,0.8,0.4,0.8,0.8v0.4h2.6C13.6,3.4,14.1,3.7,14.1,4.5z M10.5,8.2c0-1.6-1.3-3-3-3c-1.6,0-3,1.3-3,3c0,1.6,1.3,3,3,3
	C9.2,11.2,10.5,9.8,10.5,8.2z M12.9,4.9c0-0.2-0.2-0.4-0.4-0.4c-0.2,0-0.4,0.2-0.4,0.4c0,0.2,0.2,0.4,0.4,0.4
	C12.7,5.4,12.9,5.2,12.9,4.9z"/>
</svg>
