<?xml version="1.0" encoding="utf-8"?>
<!-- Generator: Adobe Illustrator 26.0.3, SVG Export Plug-In . SVG Version: 6.00 Build 0)  -->
<svg version="1.1" id="レイヤー_1" xmlns="http://www.w3.org/2000/svg" xmlns:xlink="http://www.w3.org/1999/xlink" x="0px"
	 y="0px" viewBox="0 0 15 15" style="enable-background:new 0 0 15 15;" xml:space="preserve">
<style type="text/css">
	.st0{fill:#F6AD3C;}
</style>
<g>
	<circle class="st0" cx="7.5" cy="6.1" r="2.1"/>
	<path class="st0" d="M7.5,0.8c-3,0-5.4,2.4-5.4,5.4c0,3.5,5,7.9,5.2,8.1l0.1,0.1l0.1-0.1c0.2-0.2,5.3-4.3,5.3-8.1
		C12.9,3.3,10.5,0.8,7.5,0.8z M11.5,6.2c0,2.2-1.8,4-4,4c-2.2,0-4-1.8-4-4c0-2.2,1.8-4,4-4C9.7,2.2,11.5,4,11.5,6.2z"/>
</g>
</svg>
