<?xml version="1.0" encoding="utf-8"?>
<!-- Generator: Adobe Illustrator 26.0.3, SVG Export Plug-In . SVG Version: 6.00 Build 0)  -->
<svg version="1.1" id="レイヤー_1" xmlns="http://www.w3.org/2000/svg" xmlns:xlink="http://www.w3.org/1999/xlink" x="0px"
	 y="0px" viewBox="0 0 15 15" style="enable-background:new 0 0 15 15;" xml:space="preserve">
<style type="text/css">
	.st0{fill:#B5B5B6;}
</style>
<path class="st0" d="M7.2,1.6C4.2,1.6,1,3.8,1,7c0,3.5,3.5,4.9,5.6,5.2c0.1,0,0.2,0.1,0.3,0.1c0.1,0.1,0,0.4,0,0.6
	c0,0.1-0.1,0.3-0.1,0.4c0,0.2,0,0.5,0.2,0.6c0.1,0,0.1,0.1,0.2,0.1c0.1,0,0.3,0,0.4-0.1c0.8-0.3,2.9-1.7,3.5-2.2l0,0
	c0.7-0.5,2.8-2.1,2.8-4.7C13.9,3.8,11.2,1.6,7.2,1.6z M4.3,7.6c-0.5,0-0.8-0.4-0.8-0.8C3.4,6.4,3.8,6,4.3,6c0.5,0,0.8,0.4,0.8,0.8
	C5.1,7.3,4.7,7.6,4.3,7.6z M7.5,7.6c-0.5,0-0.8-0.4-0.8-0.8C6.7,6.4,7.1,6,7.5,6C8,6,8.4,6.4,8.4,6.8C8.4,7.3,8,7.6,7.5,7.6z
	 M10.8,7.6c-0.5,0-0.8-0.4-0.8-0.8C10,6.4,10.4,6,10.8,6c0.5,0,0.8,0.4,0.8,0.8C11.7,7.3,11.3,7.6,10.8,7.6z"/>
</svg>
