<?xml version="1.0" encoding="utf-8"?>
<!-- Generator: Adobe Illustrator 26.0.3, SVG Export Plug-In . SVG Version: 6.00 Build 0)  -->
<svg version="1.1" id="レイヤー_1" xmlns="http://www.w3.org/2000/svg" xmlns:xlink="http://www.w3.org/1999/xlink" x="0px"
	 y="0px" viewBox="0 0 15 15" style="enable-background:new 0 0 15 15;" xml:space="preserve">
<style type="text/css">
	.st0{fill:#A4D298;}
</style>
<path class="st0" d="M11.5,2.9h-0.4v1.5c0,0.3-0.2,0.5-0.5,0.5H9.1c-0.3,0-0.5-0.2-0.5-0.5V2.9H6.4v1.4c0,0.3-0.3,0.6-0.6,0.6H4.5
	c-0.3,0-0.6-0.3-0.6-0.6V2.9H3.4C2.6,2.9,2,3.5,2,4.3v7.4c0,0.8,0.6,1.4,1.4,1.4h8c0.8,0,1.4-0.6,1.4-1.4V4.3
	C12.9,3.5,12.3,2.9,11.5,2.9z M11.8,11.5c0,0.3-0.3,0.6-0.6,0.6H3.7c-0.3,0-0.6-0.3-0.6-0.6V5.8h8.7V11.5z M5.1,1.8
	c0.5,0,0.8,0.4,0.8,0.6c0,0.2,0,1.5,0,1.7c0,0.2,0,0.3-0.2,0.3c-0.2,0-0.9,0-1.1,0S4.4,4.3,4.4,4.1c0-0.2,0-1.4,0-1.6
	C4.4,2.2,4.5,1.8,5.1,1.8z M9.8,1.8c0.5,0,0.8,0.4,0.8,0.6c0,0.2,0,1.5,0,1.7c0,0.2,0,0.3-0.2,0.3c-0.2,0-0.9,0-1.1,0
	c-0.2,0-0.2-0.1-0.2-0.3c0-0.2,0-1.4,0-1.6C9.1,2.2,9.2,1.8,9.8,1.8z M5.8,8.4H4.2V6.8h1.6V8.4z M8.3,8.4H6.7V6.8h1.6V8.4z
	 M10.8,8.4H9.2V6.8h1.6V8.4z M5.8,11H4.2V9.4h1.6V11z M8.3,11H6.7V9.4h1.6V11z M10.8,11H9.2V9.4h1.6V11z"/>
</svg>
