<?xml version="1.0" encoding="utf-8"?>
<!-- Generator: Adobe Illustrator 26.0.3, SVG Export Plug-In . SVG Version: 6.00 Build 0)  -->
<svg version="1.1" id="レイヤー_1" xmlns="http://www.w3.org/2000/svg" xmlns:xlink="http://www.w3.org/1999/xlink" x="0px"
	 y="0px" viewBox="0 0 20 20" style="enable-background:new 0 0 20 20;" xml:space="preserve">
<style type="text/css">
	.st0{fill:#FAC985;}
</style>
<path class="st0" d="M17.8,9.2L17,6.4C16.9,6,16.5,5.7,16,5.7l-7.9,0C7.6,5.7,7.2,6,7,6.3L5.4,9.2L4,9.2c-1.2,0-1.8,0.6-2,1.2
	c-0.2,0.6-0.2,1.6-0.2,1.6c-0.1,0.8,0.6,1.4,1.3,1.4l0.8,0c0.2,1,1,1.7,2,1.7c1,0,1.9-0.7,2-1.7l4.9,0c0.2,1,1,1.7,2,1.7
	c1,0,1.9-0.7,2-1.7l0.4,0c0.7,0,1.3-0.6,1.3-1.3l0-1.7C18.6,9.5,17.8,9.2,17.8,9.2z M2.8,11.2c-0.4,0-0.4-0.3-0.4-0.6
	c0.1-0.3,0.2-0.7,0.7-0.7C3.5,9.9,3.3,11.2,2.8,11.2z M5.9,14.2c-0.6,0-1-0.5-1-1c0-0.6,0.5-1,1-1c0.6,0,1,0.5,1,1
	C6.9,13.7,6.5,14.2,5.9,14.2z M10.4,9.2l-3.9,0c0,0,0.9-1.7,1-2c0.2-0.3,0.4-0.5,0.8-0.5c0.4,0,2.1,0,2.1,0L10.4,9.2z M11.3,9.2
	l0-2.5l2.8,0l0.6,2.5L11.3,9.2z M15.6,9.2L15,6.7c0,0,0.5,0,0.9,0c0.4,0,0.5,0.2,0.6,0.5c0.1,0.3,0.6,2,0.6,2L15.6,9.2z M14.8,14.2
	c-0.6,0-1-0.5-1-1c0-0.6,0.5-1,1-1c0.6,0,1,0.5,1,1C15.9,13.7,15.4,14.2,14.8,14.2z"/>
</svg>
